<svg id="LOGO" xmlns="http://www.w3.org/2000/svg" width="194.317" height="28" viewBox="0 0 194.317 28">
  <g id="LOGO-2" data-name="LOGO" style="isolation: isolate">
    <g id="Layer_1" data-name="Layer 1">
      <path id="Path_1" data-name="Path 1" d="M255.268,35.885q-4.65,0-7.069-2.552T245.78,25.81q0-5.02,2.419-7.578t7.069-2.552q4.63,0,7.059,2.567t2.434,7.563q0,4.966-2.434,7.523T255.268,35.885Zm0-3.643a6.743,6.743,0,0,0,2.261-.331,3.169,3.169,0,0,0,1.481-1.091,5.04,5.04,0,0,0,.839-1.975,14.526,14.526,0,0,0,.267-3.031,13.819,13.819,0,0,0-.281-3.016,5.2,5.2,0,0,0-.824-2.024,3.318,3.318,0,0,0-1.481-1.116,6.417,6.417,0,0,0-2.221-.346,6.5,6.5,0,0,0-2.231.346,3.327,3.327,0,0,0-1.535,1.116,4.936,4.936,0,0,0-.849,2,14.81,14.81,0,0,0-.267,3.031,14.53,14.53,0,0,0,.267,3.031,5.035,5.035,0,0,0,.834,1.975,3.184,3.184,0,0,0,1.506,1.091,6.714,6.714,0,0,0,2.236.336Z" transform="translate(-124.45 -7.94)" fill="#fff" fill-rule="evenodd"/>
      <path id="Path_2" data-name="Path 2" d="M210,16.078a46.611,46.611,0,0,1,5.874-.4,22.066,22.066,0,0,1,4.586.415,8.585,8.585,0,0,1,3.15,1.274,5.208,5.208,0,0,1,1.807,2.221A8.076,8.076,0,0,1,226,22.806a6.145,6.145,0,0,1-2.468,5.381q-2.468,1.748-7.513,1.743h-.74a6.273,6.273,0,0,1-.745-.03v5.717H210Zm6.753,10.317a10.944,10.944,0,0,0,2.192-.188,3.623,3.623,0,0,0,1.422-.6,2.325,2.325,0,0,0,.785-1.106,5.271,5.271,0,0,0,.237-1.7,5.391,5.391,0,0,0-.227-1.678,2.305,2.305,0,0,0-.755-1.116,3.406,3.406,0,0,0-1.4-.612,13.641,13.641,0,0,0-3.386-.133c-.439.049-.81.074-1.091.109v6.857c.267.035.607.074,1.022.109s.829.054,1.2.054Z" transform="translate(-106.333 -7.937)" fill="#fff" fill-rule="evenodd"/>
      <path id="Path_3" data-name="Path 3" d="M46.531,29.051c-.3,0-.617.03-.943.039s-.661,0-.987,0h-.77l-.469-.025h-.355v6.566H38.45V16.078a45.3,45.3,0,0,1,5.874-.4,23.449,23.449,0,0,1,4.571.39,8.678,8.678,0,0,1,3.154,1.209,5.015,5.015,0,0,1,1.822,2.083,7.212,7.212,0,0,1,.583,3.046,5.721,5.721,0,0,1-3.949,5.82l4.784,7.4H50.253l-3.722-6.566ZM45.2,25.6a12.514,12.514,0,0,0,2.192-.158,3.539,3.539,0,0,0,1.437-.543,2.177,2.177,0,0,0,.78-.987,4.117,4.117,0,0,0,.242-1.516,4.265,4.265,0,0,0-.227-1.481,2.063,2.063,0,0,0-.77-.987,3.584,3.584,0,0,0-1.407-.543,11.917,11.917,0,0,0-2.142-.158,10.5,10.5,0,0,0-1.185.049c-.454.049-.824.074-1.126.109v6.057a3.722,3.722,0,0,0,.874.143c.375.03.815.039,1.333.039Z" transform="translate(-19.469 -7.938)" fill="#73ac25" fill-rule="evenodd"/>
      <path id="Path_4" data-name="Path 4" d="M7.711,35.885q-1.886,0-3.762-.094T0,35.485V16.08c1.362-.138,2.616-.242,3.747-.306S6,15.68,7.1,15.68q4.413,0,6.417,1.333a4.62,4.62,0,0,1,1.975,4.2,4.364,4.364,0,0,1-.849,2.764,4.349,4.349,0,0,1-2.528,1.481v.109a4.966,4.966,0,0,1,2.992,1.58,4.645,4.645,0,0,1,1.027,3.125,4.743,4.743,0,0,1-2.063,4.24Q12.006,35.89,7.711,35.885Zm-.054-3.219q3.949,0,3.949-2.789a2.374,2.374,0,0,0-.889-2.073,5.241,5.241,0,0,0-2.962-.637H4.3v5.341a4.053,4.053,0,0,0,.494.079l.637.035c.247,0,.548.025.9.025Zm-.188-8.476a4.688,4.688,0,0,0,2.74-.6A2.412,2.412,0,0,0,11,21.53a2.305,2.305,0,0,0-.834-2.034,5.037,5.037,0,0,0-2.834-.6c-.6,0-1.15,0-1.649.039a12.622,12.622,0,0,0-1.382.148v5.1Z" transform="translate(0 -7.94)" fill="#73ac25" fill-rule="evenodd"/>
      <path id="Path_5" data-name="Path 5" d="M369.612,16.22h.355v3.564H364.2V35.892H359.65V22.351a86.245,86.245,0,0,0,9.962-6.131Z" transform="translate(-182.108 -8.213)" fill="#fff" fill-rule="evenodd"/>
      <path id="Path_6" data-name="Path 6" d="M353.057,19.784H348.12V16.22h10.5A64.224,64.224,0,0,1,353.057,19.784Z" transform="translate(-176.27 -8.213)" fill="#fff" fill-rule="evenodd"/>
      <path id="Path_7" data-name="Path 7" d="M311.194,44.41v5.756H307.21v-5.04C308.543,44.918,309.871,44.7,311.194,44.41Z" transform="translate(-155.555 -22.487)" fill="#fff" fill-rule="evenodd"/>
      <path id="Path_8" data-name="Path 8" d="M335.15,25.146V16.26H339.1v7.247Q337.184,24.361,335.15,25.146Z" transform="translate(-169.702 -8.233)" fill="#fff" fill-rule="evenodd"/>
      <path id="Path_9" data-name="Path 9" d="M328.88,37.982l.893,1.288h.237V37.611q1.975-.666,3.949-1.441v9.824h-3.628L325,39.117Q326.945,38.6,328.88,37.982Z" transform="translate(-164.563 -18.315)" fill="#fff" fill-rule="evenodd"/>
      <path id="Path_10" data-name="Path 10" d="M307.21,16.22h3.638l7.681,9.829q-1.891.681-3.846,1.308l-1.55-1.975-1.728-2.419h-.212v5.455q-1.975.563-3.984,1.091Z" transform="translate(-155.555 -8.213)" fill="#fff" fill-rule="evenodd"/>
      <path id="Path_11" data-name="Path 11" d="M294.787,46.9v4.527H290.24V47.3Q292.531,47.152,294.787,46.9Z" transform="translate(-146.962 -23.748)" fill="#fff" fill-rule="evenodd"/>
      <path id="Path_12" data-name="Path 12" d="M290.24,16.22h4.547V30.427q-2.236.494-4.547.987Z" transform="translate(-146.962 -8.213)" fill="#fff" fill-rule="evenodd"/>
      <path id="Path_13" data-name="Path 13" d="M178.407,19.784H172.69V16.22h16.029v3.564h-5.766V35.892h-4.547Z" transform="translate(-87.441 -8.213)" fill="#73ac25" fill-rule="evenodd"/>
      <path id="Path_14" data-name="Path 14" d="M131.71,16.22h4.547v7.815H145V16.22h4.517V35.892H145V27.574h-8.748v8.318H131.71Z" transform="translate(-66.691 -8.213)" fill="#73ac25" fill-rule="evenodd"/>
      <path id="Path_15" data-name="Path 15" d="M102.1,35.889q-5.05,0-7.479-2.5T92.19,25.759q0-5.134,2.552-7.657t7.815-2.523a24.712,24.712,0,0,1,2.873.173,22.283,22.283,0,0,1,2.735.464V19.86c-1.15-.2-2.152-.341-3-.439a19.913,19.913,0,0,0-2.261-.148,10.742,10.742,0,0,0-2.9.336,3.949,3.949,0,0,0-1.876,1.086,4.374,4.374,0,0,0-.987,1.975,13.748,13.748,0,0,0-.291,3.071,14.529,14.529,0,0,0,.267,3.031,4.512,4.512,0,0,0,.9,1.975,3.456,3.456,0,0,0,1.673,1.076,8.93,8.93,0,0,0,2.582.321c.267,0,.568,0,.918-.03s.691-.039,1.047-.079V25.572h4.147v9.379a32.739,32.739,0,0,1-3.3.691A19.716,19.716,0,0,1,102.1,35.889Z" transform="translate(-46.68 -7.889)" fill="#73ac25" fill-rule="evenodd"/>
      <rect id="Rectangle_2" data-name="Rectangle 2" width="4.547" height="19.672" transform="translate(38.011 8.007)" fill="#73ac25"/>
      <path id="Path_16" data-name="Path 16" d="M381.858,2.962V8.59h2.962V0h-8.59V2.962Z" transform="translate(-190.503)" fill="#73ac25" fill-rule="evenodd"/>
      <path id="Path_17" data-name="Path 17" d="M386.339,0,379.23,2.962h4.147V6.793Z" transform="translate(-192.022)" fill="#628c20" fill-rule="evenodd"/>
    </g>
  </g>
</svg>
