<svg xmlns="http://www.w3.org/2000/svg" width="121.194" height="29.387" viewBox="0 0 121.194 29.387">
  <g id="Group_14" data-name="Group 14" transform="translate(-493.199 -176.942)">
    <path id="Path_21" data-name="Path 21" d="M672.833,177.059a7.212,7.212,0,0,0-7.169,5.477,43.424,43.424,0,0,0-.664,5.276,4.827,4.827,0,0,0,1.47,3.705,7.03,7.03,0,0,0,3.111,1.641,16.07,16.07,0,0,0,8.729-.534,6.828,6.828,0,0,0,3.8-4.339,29.936,29.936,0,0,0,.715-5.527,4.548,4.548,0,0,0-1.4-3.8C679.78,177.34,676.669,176.646,672.833,177.059Zm3.655,3.071c1.107.332,1.7,1.309,1.7,2.8a29.045,29.045,0,0,1-.7,4.954,3.713,3.713,0,0,1-2.286,2.467,8.268,8.268,0,0,1-3.886,0,2.286,2.286,0,0,1-1.641-2.265,28.238,28.238,0,0,1,.624-5.095,3.785,3.785,0,0,1,2.648-2.88A11.01,11.01,0,0,1,676.488,180.129Z" transform="translate(-154.503)" fill="#fff"/>
    <path id="Path_22" data-name="Path 22" d="M1116.375,177.094a8.43,8.43,0,0,0-5.86,2.819c-.956,1.279-1.309,2.326-1.681,5.074-.433,3.252-.282,4.7.655,5.97a6.419,6.419,0,0,0,2.316,1.782,13.327,13.327,0,0,0,6.142.765c4.349-.342,6.806-2.014,7.753-5.256a29.674,29.674,0,0,0,.725-5.95,4.725,4.725,0,0,0-1.571-3.433C1123.221,177.346,1120.1,176.7,1116.375,177.094Zm4.118,3.252c1.269.695,1.48,1.752,1.047,5.044-.332,2.467-.664,3.4-1.49,4.2a4.9,4.9,0,0,1-4.078,1.007c-2-.252-2.749-1.037-2.729-2.89a35.722,35.722,0,0,1,.544-4.43,3.924,3.924,0,0,1,2.608-3.091,6.119,6.119,0,0,1,2.064-.151C1119.909,180.054,1119.989,180.064,1120.493,180.346Z" transform="translate(-553.443 -0.035)" fill="#fff"/>
    <path id="Path_23" data-name="Path 23" d="M1528.272,177.333c-.161.02-.665.091-1.108.151a10.469,10.469,0,0,0-3.242,1.047,6.974,6.974,0,0,0-2.628,2.779,10.926,10.926,0,0,0-.987,3.957c-.5,3.816-.242,5.225,1.238,6.615,1.531,1.43,4.178,2.134,7.33,1.953,3.685-.211,6-1.238,7.34-3.252.816-1.228,1.067-2.074,1.42-4.792.383-2.94.332-4-.272-5.276-.695-1.47-2.306-2.527-4.561-3A29.918,29.918,0,0,0,1528.272,177.333Zm3.212,3.1a2.484,2.484,0,0,1,1.732,2.4,28.671,28.671,0,0,1-.624,5.125c-.655,2.185-2.245,3.172-4.833,2.97-2.165-.161-3.061-1.017-3.061-2.9a33.887,33.887,0,0,1,.665-4.883,3.829,3.829,0,0,1,2.608-2.708A11.422,11.422,0,0,1,1531.483,180.434Z" transform="translate(-923.486 -0.324)" fill="#fff"/>
    <path id="Path_24" data-name="Path 24" d="M500.579,181.2c-3.1.4-5.145,1.661-6.2,3.806a10.442,10.442,0,0,0-.946,3.886c-.383,2.849-.3,4.088.322,5.246a6.3,6.3,0,0,0,3.806,2.618c.765.211,1.007.221,4.43.232h3.625l.513-.272a3.454,3.454,0,0,0,1.691-2.426l.06-.272h-3.705c-2.074,0-3.957-.04-4.259-.1a2.686,2.686,0,0,1-1.752-1c-.272-.383-.3-.524-.332-1.319a22.7,22.7,0,0,1,.453-4.279,3.856,3.856,0,0,1,1.681-2.618c.846-.493,1.51-.584,4.591-.644l2.869-.06.483-.282a3.46,3.46,0,0,0,1.379-1.822,6.364,6.364,0,0,0,.2-.685C509.49,181.133,501.183,181.123,500.579,181.2Z" transform="translate(0 -3.782)" fill="#fff"/>
    <path id="Path_25" data-name="Path 25" d="M870.937,188.542c-.513,4.259-.956,7.843-.987,7.974l-.05.232,1.54-.04a6.143,6.143,0,0,0,1.973-.221,3.01,3.01,0,0,0,1.43-1.621c.07-.262.322-1.993.544-3.856l.423-3.393.413.755c.221.413.916,1.732,1.54,2.92a25.107,25.107,0,0,0,1.43,2.487c.544.564,1.188.5,1.853-.191.232-.242,1.4-1.671,2.6-3.182s2.175-2.718,2.175-2.688-.252,2.054-.554,4.48-.554,4.45-.554,4.48a7.968,7.968,0,0,0,1.49.03c1.651-.05,1.953-.131,2.618-.725.725-.654.735-.7,1.621-7.914.453-3.625.836-6.746.876-6.927l.05-.342-1.691.04c-2.517.05-2.114-.221-5.86,4.017-1.692,1.923-3.121,3.514-3.172,3.534s-1.067-1.53-2.265-3.443c-2.255-3.6-2.416-3.806-3.222-4.027a12.5,12.5,0,0,0-1.822-.1h-1.46Z" transform="translate(-338.774 -3.47)" fill="#fff"/>
    <path id="Path_26" data-name="Path 26" d="M1316.133,181.715a2.327,2.327,0,0,0,.906,1.883l.4.272,3.534.06c3.373.05,3.564.06,4.118.282a2.391,2.391,0,0,1,1.691,2.1,7.991,7.991,0,0,1-.151,2.507c-.141,1.047-.322,2.124-.4,2.376a3.527,3.527,0,0,1-1.782,2.195,7.649,7.649,0,0,1-3.484.493c-1.5,0-1.742-.02-1.742-.151,0-.091.161-1.45.353-3.031s.352-3.01.352-3.192a1.908,1.908,0,0,0-1.339-1.933,8.853,8.853,0,0,0-3.091-.04c0,.06-.252,2.084-.564,4.5-.735,5.8-.715,5.527-.423,5.96.554.836,1.329.946,6.071.876a35.6,35.6,0,0,0,4.531-.211c3.262-.564,5-2.044,5.749-4.883a47.283,47.283,0,0,0,.644-5.266c-.01-3.111-1.994-4.923-5.94-5.407-.473-.06-2.759-.111-5.175-.111h-4.319Z" transform="translate(-738.451 -3.649)" fill="#fff"/>
    <path id="Path_27" data-name="Path 27" d="M520.316,375.275a2.493,2.493,0,0,0-2.255,2.527c-.02,1.45.524,2.124,2.416,3.031,1.319.634,1.571.9,1.309,1.3a.8.8,0,0,1-.423.312,5.13,5.13,0,0,1-2.306-.312c-.383-.141-.785-.292-.876-.322-.161-.05-.181.05-.181,1.108v1.158l.685.242a5.084,5.084,0,0,0,2.034.232,3.478,3.478,0,0,0,1.963-.282,3.088,3.088,0,0,0,1.49-1.329,2.312,2.312,0,0,0,.221-1.259c0-1.46-.332-1.863-2.406-2.9-1.017-.5-1.279-.685-1.329-.886-.171-.665.785-.846,2.135-.393a7.422,7.422,0,0,0,.836.252,8.244,8.244,0,0,0,.805-1.953,7.2,7.2,0,0,0-1.631-.5A5.763,5.763,0,0,0,520.316,375.275Z" transform="translate(-22.304 -178.251)" fill="#fff"/>
    <path id="Path_28" data-name="Path 28" d="M593.316,375.3a2.5,2.5,0,0,0-2.255,2.628c-.01,1.339.574,2.044,2.416,2.93,1.319.634,1.571.9,1.309,1.3a.8.8,0,0,1-.423.312,5.129,5.129,0,0,1-2.306-.312c-.383-.141-.785-.292-.876-.322-.161-.05-.181.05-.181,1.108V384.1l.685.242a5.083,5.083,0,0,0,2.034.232,3.479,3.479,0,0,0,1.963-.282,2.672,2.672,0,0,0,1.742-2.356c.111-1.47-.393-2.134-2.416-3.131-1.037-.5-1.3-.685-1.349-.886-.171-.665.785-.846,2.135-.393a7.41,7.41,0,0,0,.836.252,9.723,9.723,0,0,0,.816-1.893,4.443,4.443,0,0,0-1.661-.574A5.992,5.992,0,0,0,593.316,375.3Z" transform="translate(-87.954 -178.273)" fill="#fff"/>
    <path id="Path_29" data-name="Path 29" d="M743.343,375.323a4.107,4.107,0,0,0-2.829,2.145,5.33,5.33,0,0,0-.513,2.557c.01,2.124.775,3.554,2.316,4.289.624.3.7.312,1.963.312a9.008,9.008,0,0,0,1.742-.131c.383-.121.423-.161.423-.463V383.7l-.675.151a5.983,5.983,0,0,1-3.031-.181,3.519,3.519,0,0,1-1.651-1.792,8.113,8.113,0,0,1,0-3.766,3.808,3.808,0,0,1,1.712-1.863,2.706,2.706,0,0,1,1.581-.282,4.074,4.074,0,0,1,1.46.191c.654.252.7.242.856-.111.131-.312.131-.322-.252-.473A6.41,6.41,0,0,0,743.343,375.323Z" transform="translate(-221.952 -178.33)" fill="#fff"/>
    <path id="Path_30" data-name="Path 30" d="M1160.343,375.384c-2.074.443-3.343,2.215-3.343,4.682,0,2.426,1.148,4.118,3.111,4.581a9.085,9.085,0,0,0,3.01-.1c.272-.1.322-.171.322-.443v-.332l-.675.151a5.447,5.447,0,0,1-3.071-.211,3.8,3.8,0,0,1-1.893-3.645,3.922,3.922,0,0,1,2.094-3.806,5.206,5.206,0,0,1,3.111.01l.534.221.161-.322c.131-.252.141-.322.02-.393A6.756,6.756,0,0,0,1160.343,375.384Z" transform="translate(-596.968 -178.401)" fill="#fff"/>
    <path id="Path_31" data-name="Path 31" d="M668,380.631v4.631h6.041v-2.114h-3.524V376H668Z" transform="translate(-157.201 -179.016)" fill="#fff"/>
    <path id="Path_32" data-name="Path 32" d="M823,380.631v4.631h5.135v-.7h-4.329v-3.826h4.027v-.7h-4.027V376.7h4.329V376H823Z" transform="translate(-296.596 -179.016)" fill="#fff"/>
    <path id="Path_33" data-name="Path 33" d="M893,380.631v4.631h.7v-4.027h2.175l1.188,2.014,1.188,2.014h.443c.534,0,.634.262-.886-2.3-.614-1.017-1.087-1.863-1.067-1.873s.222-.1.453-.2a2.234,2.234,0,0,0,1.339-2.306c0-1.963-1.067-2.588-4.45-2.588H893Zm3.786-3.614a1.581,1.581,0,0,1,.956,1.158,1.881,1.881,0,0,1-.916,2.155c-.4.221-.594.252-1.782.282l-1.339.04v-3.977l1.3.05A3.666,3.666,0,0,1,896.786,377.017Z" transform="translate(-359.548 -179.016)" fill="#fff"/>
    <path id="Path_34" data-name="Path 34" d="M956,376.352v.352h2.92v8.558h.805V376.7h2.92V376H956Z" transform="translate(-416.205 -179.016)" fill="#fff"/>
    <path id="Path_35" data-name="Path 35" d="M1035,380.631v4.631h.7V376h-.7Z" transform="translate(-487.251 -179.016)" fill="#fff"/>
    <path id="Path_36" data-name="Path 36" d="M1066,380.631v4.631h.805v-4.128h4.128v-.6h-4.128V376.7h4.329V376H1066Z" transform="translate(-515.13 -179.016)" fill="#fff"/>
    <path id="Path_37" data-name="Path 37" d="M1130,380.631v4.631h.7V376h-.7Z" transform="translate(-572.686 -179.016)" fill="#fff"/>
    <path id="Path_38" data-name="Path 38" d="M1231.534,376.328c-.05.131-.866,2.165-1.812,4.541s-1.722,4.349-1.722,4.4.171.1.393.1h.383l.624-1.611.634-1.611,1.812.02,1.822.03.614,1.581.614,1.591h.433a1.377,1.377,0,0,0,.423-.03c0-.01-.816-2.084-1.8-4.6-1.7-4.319-1.812-4.581-2.064-4.611A.268.268,0,0,0,1231.534,376.328Zm1.772,5.084c-.02.02-.7.02-1.5.01l-1.46-.03.765-1.973.765-1.973.735,1.963C1233.014,380.486,1233.326,381.383,1233.306,381.413Z" transform="translate(-660.819 -179.123)" fill="#fff"/>
    <path id="Path_39" data-name="Path 39" d="M1304,376.352v.352h3.021v8.558h.7V376.7h2.92V376H1304Z" transform="translate(-729.167 -179.016)" fill="#fff"/>
    <path id="Path_40" data-name="Path 40" d="M1383,380.631v4.631h5.034v-.7H1383.7v-3.826h4.128v-.7H1383.7V376.7h4.329V376H1383Z" transform="translate(-800.214 -179.016)" fill="#fff"/>
  </g>
</svg>
