<svg id="upload-to-the-cloud-interface-symbol" xmlns="http://www.w3.org/2000/svg" width="84.647" height="53.086" viewBox="0 0 84.647 53.086">
  <g id="Group_10" data-name="Group 10">
    <path id="Path_19" data-name="Path 19" d="M14.866,155.186l48.376-.077a21.439,21.439,0,1,0-6.006-42.018,22.523,22.523,0,0,0-41.869,11.584c0,.289.033.568.045.854-.2-.008-.394-.029-.593-.029a14.843,14.843,0,0,0,.047,29.686Zm14.65-26.649,11.229-11.194a2.256,2.256,0,0,1,3.19,0l11.194,11.23c.88.883.583,1.6-.663,1.594l-4.279-.007-.026,15.86a.9.9,0,0,1-.9.9L35.329,146.9a.9.9,0,0,1-.9-.9l.025-15.86-4.279-.007C28.928,130.131,28.633,129.416,29.516,128.537Z" transform="translate(0 -102.1)" fill="#8cb41f"/>
  </g>
</svg>
