<svg xmlns="http://www.w3.org/2000/svg" width="86.573" height="35.748" viewBox="0 0 86.573 35.748">
    <defs>
        <style>
            .cls-1{fill:#999}.cls-2{fill:#fff}
        </style>
    </defs>
    <g id="Group_88" data-name="Group 88" transform="translate(-682.642 -740.433)">
        <path id="Path_215" d="M516.021 399.584h11.832v2.2H523.2V414.2h-2.56v-12.406H516zm11.329 4.04h2.179v2.046h.041a2.792 2.792 0 0 1 .411-.843 3.271 3.271 0 0 1 .72-.74 3.145 3.145 0 0 1 .935-.545 2.757 2.757 0 0 1 1.038-.216c.277 0 .473.02.565.02a1.571 1.571 0 0 0 .308.041v2.241a3.644 3.644 0 0 0-.5-.082 4.117 4.117 0 0 0-.5-.041 2.726 2.726 0 0 0-1.11.236 2.8 2.8 0 0 0-.915.679 3.514 3.514 0 0 0-.627 1.131 4.846 4.846 0 0 0-.236 1.562v5.027h-2.344zm16.921 10.588h-2.3v-1.48h-.041a3.221 3.221 0 0 1-1.285 1.285 3.42 3.42 0 0 1-1.737.483 3.835 3.835 0 0 1-3.022-1.038 4.5 4.5 0 0 1-.935-3.115v-6.723h2.344v6.5a2.783 2.783 0 0 0 .545 1.974 1.915 1.915 0 0 0 1.5.586 2.884 2.884 0 0 0 1.223-.236 2.1 2.1 0 0 0 .8-.607 2.464 2.464 0 0 0 .452-.915 4.538 4.538 0 0 0 .134-1.151v-6.137h2.344v10.588zm3.978-3.393a1.834 1.834 0 0 0 .781 1.439 3.041 3.041 0 0 0 1.614.411 4.994 4.994 0 0 0 .74-.062 3.222 3.222 0 0 0 .781-.2 1.315 1.315 0 0 0 .607-.432 1 1 0 0 0 .216-.72 1.052 1.052 0 0 0-.329-.74 3.032 3.032 0 0 0-.781-.473 6.4 6.4 0 0 0-1.09-.288c-.411-.072-.822-.175-1.244-.277a12.775 12.775 0 0 1-1.264-.35 3.439 3.439 0 0 1-1.09-.565 2.479 2.479 0 0 1-.761-.894 2.81 2.81 0 0 1-.288-1.347 2.261 2.261 0 0 1 .432-1.439 3.233 3.233 0 0 1 1.069-.935 4.69 4.69 0 0 1 1.439-.5 8.739 8.739 0 0 1 1.5-.134 6.988 6.988 0 0 1 1.563.175 3.747 3.747 0 0 1 1.347.565 3.147 3.147 0 0 1 1 1.018 3.377 3.377 0 0 1 .5 1.5h-2.437a1.49 1.49 0 0 0-.761-1.131 3.13 3.13 0 0 0-1.388-.288c-.154 0-.37.02-.586.041a4.225 4.225 0 0 0-.648.154 1.589 1.589 0 0 0-.5.329.785.785 0 0 0-.216.565.85.85 0 0 0 .288.679 2.907 2.907 0 0 0 .781.452 6.4 6.4 0 0 0 1.09.288c.411.072.843.175 1.264.278a11.637 11.637 0 0 1 1.244.349 3.236 3.236 0 0 1 1.09.566 2.9 2.9 0 0 1 .781.874 2.692 2.692 0 0 1 .288 1.305 2.816 2.816 0 0 1-.432 1.6 3.45 3.45 0 0 1-1.11 1.069 5.348 5.348 0 0 1-1.521.606 8.431 8.431 0 0 1-1.655.2 7.07 7.07 0 0 1-1.85-.236 4.785 4.785 0 0 1-1.48-.679 3.215 3.215 0 0 1-.977-1.151 3.762 3.762 0 0 1-.391-1.634h2.354v.02zm7.7-7.2h1.779v-3.2h2.344v3.181h2.107v1.737h-2.109v5.654a5.767 5.767 0 0 0 .041.648 1.691 1.691 0 0 0 .134.452.866.866 0 0 0 .329.278 1.68 1.68 0 0 0 .627.092 3.813 3.813 0 0 0 .483-.02 3.975 3.975 0 0 0 .483-.082v1.809c-.257.041-.5.062-.761.082a4.588 4.588 0 0 1-.761.041 5.155 5.155 0 0 1-1.48-.175 2.068 2.068 0 0 1-.874-.5 1.836 1.836 0 0 1-.432-.843 6.441 6.441 0 0 1-.134-1.172v-6.24h-1.779v-1.737zm7.854 0H566v1.439h.041a2.893 2.893 0 0 1 1.367-1.326 4.374 4.374 0 0 1 1.912-.411 4.668 4.668 0 0 1 2.179.452 3.98 3.98 0 0 1 1.542 1.213 5 5 0 0 1 .915 1.789 7.918 7.918 0 0 1 .308 2.179 7.6 7.6 0 0 1-.277 2.066 5.917 5.917 0 0 1-.843 1.778 4.139 4.139 0 0 1-3.444 1.7 6.911 6.911 0 0 1-1.018-.092 4.828 4.828 0 0 1-.977-.288 3.126 3.126 0 0 1-.853-.524 2.971 2.971 0 0 1-.658-.74h-.031v5.284h-2.344v-14.514zm8.173 5.3a4.867 4.867 0 0 0-.2-1.388 3.365 3.365 0 0 0-.565-1.192 3.234 3.234 0 0 0-.915-.843 2.48 2.48 0 0 0-1.264-.308 2.566 2.566 0 0 0-2.22 1.018 4.656 4.656 0 0 0-.74 2.735 5.109 5.109 0 0 0 .2 1.48 3.145 3.145 0 0 0 .586 1.172 2.862 2.862 0 0 0 .936.781 2.639 2.639 0 0 0 1.265.288 2.588 2.588 0 0 0 1.347-.329 3.115 3.115 0 0 0 .915-.843 3.27 3.27 0 0 0 .5-1.192 6.989 6.989 0 0 0 .153-1.37zm4.112-9.334h2.344v2.2h-2.344zm0 4.03h2.344v10.588h-2.344zm4.421-4.03h2.344v14.618h-2.344zm9.478 14.906a5.446 5.446 0 0 1-2.262-.432 4.684 4.684 0 0 1-2.714-2.93 6.832 6.832 0 0 1-.37-2.241 6.216 6.216 0 0 1 .37-2.22 5.3 5.3 0 0 1 1.038-1.779 4.87 4.87 0 0 1 1.676-1.151 5.794 5.794 0 0 1 2.262-.432 5.448 5.448 0 0 1 2.262.432 4.827 4.827 0 0 1 1.675 1.151 4.922 4.922 0 0 1 1.038 1.779 6.7 6.7 0 0 1 .37 2.22 6.253 6.253 0 0 1-.37 2.241 5.66 5.66 0 0 1-1.038 1.779 4.87 4.87 0 0 1-1.675 1.151 5.726 5.726 0 0 1-2.264.441zm0-1.85a2.7 2.7 0 0 0 1.347-.329 2.87 2.87 0 0 0 .935-.853 3.5 3.5 0 0 0 .545-1.192 5.356 5.356 0 0 0 0-2.714 3.333 3.333 0 0 0-.545-1.193 3.057 3.057 0 0 0-.935-.843 2.751 2.751 0 0 0-1.347-.329 2.7 2.7 0 0 0-1.347.329 2.955 2.955 0 0 0-.935.843 3.333 3.333 0 0 0-.545 1.193 5.36 5.36 0 0 0 0 2.714 3.333 3.333 0 0 0 .545 1.192 2.964 2.964 0 0 0 .935.853 2.545 2.545 0 0 0 1.345.338zm6.045-9.026h1.778v-3.2h2.344v3.185h2.1v1.737h-2.107v5.654a5.676 5.676 0 0 0 .041.648 1.672 1.672 0 0 0 .134.452.865.865 0 0 0 .329.278 1.68 1.68 0 0 0 .627.092 3.814 3.814 0 0 0 .483-.02 3.981 3.981 0 0 0 .483-.082v1.809c-.257.041-.5.062-.761.082a4.59 4.59 0 0 1-.761.041 5.155 5.155 0 0 1-1.48-.175 2.067 2.067 0 0 1-.874-.5 1.836 1.836 0 0 1-.432-.843 6.375 6.375 0 0 1-.134-1.172v-6.24h-1.778v-1.737z" class="cls-1" data-name="Path 215" transform="translate(166.642 340.849)"/>
        <g id="Group_77" data-name="Group 77" transform="translate(682.795 760.175)">
            <path id="Path_216" d="M530.749 477.694h-12.307a1.693 1.693 0 0 0-1.839 1.85V491.985a1.672 1.672 0 0 0 1.736 1.715h12.472a1.684 1.684 0 0 0 1.788-1.8v-12.336a1.7 1.7 0 0 0-1.85-1.87z" class="cls-1" data-name="Path 216" transform="translate(-516.603 -477.694)"/>
            <g id="Group_76" data-name="Group 76" transform="translate(1.818 2.129)">
                <path id="Path_217" d="M536.157 490.606h-4.721l-1.454-4.489-1.462 4.489-4.72-.006 3.818 2.778-1.462 4.489 3.818-2.778 3.819 2.778-1.453-4.489z" class="cls-2" data-name="Path 217" transform="translate(-523.798 -486.117)"/>
                <path id="Path_218" d="M550.947 515.852l-.327-1.015-2.357 1.711z" class="cls-1" data-name="Path 218" transform="translate(-542.08 -507.578)"/>
            </g>
        </g>
        <g id="Group_79" data-name="Group 79" transform="translate(700.401 760.175)">
            <path id="Path_219" d="M600.411 477.694H588.1a1.693 1.693 0 0 0-1.839 1.85V491.985A1.672 1.672 0 0 0 588 493.7h12.472a1.684 1.684 0 0 0 1.788-1.8v-12.336a1.7 1.7 0 0 0-1.849-1.87z" class="cls-1" data-name="Path 219" transform="translate(-586.265 -477.694)"/>
            <g id="Group_78" data-name="Group 78" transform="translate(1.818 2.129)">
                <path id="Path_220" d="M605.819 490.606H601.1l-1.453-4.489-1.462 4.489-4.721-.009 3.818 2.778-1.462 4.489 3.819-2.778 3.818 2.778-1.457-4.488z" class="cls-2" data-name="Path 220" transform="translate(-593.46 -486.117)"/>
                <path id="Path_221" d="M620.609 515.852l-.327-1.015-2.356 1.711z" class="cls-1" data-name="Path 221" transform="translate(-611.742 -507.578)"/>
            </g>
        </g>
        <g id="Group_81" data-name="Group 81" transform="translate(718.008 760.175)">
            <path id="Path_222" d="M670.072 477.694h-12.307a1.693 1.693 0 0 0-1.839 1.85V491.985a1.672 1.672 0 0 0 1.736 1.715h12.472a1.684 1.684 0 0 0 1.788-1.8v-12.336a1.7 1.7 0 0 0-1.85-1.87z" class="cls-1" data-name="Path 222" transform="translate(-655.926 -477.694)"/>
            <g id="Group_80" data-name="Group 80" transform="translate(1.818 2.129)">
                <path id="Path_223" d="M675.479 490.606h-4.721l-1.453-4.489-1.462 4.489-4.721-.009 3.818 2.778-1.462 4.489 3.818-2.778 3.819 2.778-1.453-4.489z" class="cls-2" data-name="Path 223" transform="translate(-663.121 -486.117)"/>
                <path id="Path_224" d="M690.27 515.852l-.327-1.015-2.357 1.711z" class="cls-1" data-name="Path 224" transform="translate(-681.403 -507.578)"/>
            </g>
        </g>
        <g id="Group_83" data-name="Group 83" transform="translate(735.614 760.175)">
            <path id="Path_225" d="M739.734 477.694h-12.307a1.693 1.693 0 0 0-1.839 1.85V491.985a1.672 1.672 0 0 0 1.736 1.715H739.8a1.684 1.684 0 0 0 1.788-1.8v-12.336a1.7 1.7 0 0 0-1.854-1.87z" class="cls-1" data-name="Path 225" transform="translate(-725.588 -477.694)"/>
            <g id="Group_82" data-name="Group 82" transform="translate(1.818 2.129)">
                <path id="Path_226" d="M745.141 490.606h-4.721l-1.453-4.489-1.462 4.489-4.722-.009 3.818 2.778-1.462 4.489 3.819-2.778 3.818 2.778-1.453-4.489z" class="cls-2" data-name="Path 226" transform="translate(-732.783 -486.117)"/>
                <path id="Path_227" d="M759.932 515.852l-.327-1.015-2.356 1.711z" class="cls-1" data-name="Path 227" transform="translate(-751.065 -507.578)"/>
            </g>
        </g>
        <g id="Group_85" data-name="Group 85" transform="translate(753.22 760.175)">
            <path id="Path_228" d="M809.395 477.694h-12.307a1.693 1.693 0 0 0-1.839 1.85V491.985a1.672 1.672 0 0 0 1.736 1.715h12.472a1.684 1.684 0 0 0 1.788-1.8v-12.336a1.7 1.7 0 0 0-1.85-1.87z" class="cls-1" data-name="Path 228" transform="translate(-795.249 -477.694)"/>
            <g id="Group_84" data-name="Group 84" transform="translate(1.818 2.129)">
                <path id="Path_229" d="M814.8 490.606h-4.721l-1.454-4.489-1.462 4.489-4.721-.009 3.819 2.778-1.462 4.489 3.818-2.778 3.819 2.778-1.454-4.489z" class="cls-2" data-name="Path 229" transform="translate(-802.444 -486.117)"/>
                <path id="Path_230" d="M829.593 515.852l-.327-1.015-2.357 1.711z" class="cls-1" data-name="Path 230" transform="translate(-820.726 -507.578)"/>
            </g>
        </g>
    </g>
</svg>
