<svg xmlns="http://www.w3.org/2000/svg" width="66.928" height="40.784" viewBox="0 0 66.928 40.784">
    <defs>
        <style>
            .cls-1,.cls-2{fill:#999}.cls-2{font-size:12px;font-family:Helvetica}
        </style>
    </defs>
    <g id="Group_87" data-name="Group 87" transform="translate(-593 -737)">
        <path id="Path_231" d="M263.986 386h.411v40.784h-.411z" class="cls-1" data-name="Path 231" transform="translate(354.962 351)"/>
        <path id="Path_232" d="M197.153 416.919l-.351-.29a2.839 2.839 0 0 0 .387-2.116 1.493 1.493 0 0 0-.592-.931c-.774-.629-1.572-1.221-2.37-1.838s-1.62-1.2-2.37-1.862a4.225 4.225 0 0 1-1.451-3.833 5.033 5.033 0 0 1 .617-1.947 34.811 34.811 0 0 1 2.757-3.942c.012 0 .036.012.048.012a.443.443 0 0 1 .206.616 1.8 1.8 0 0 0-.085.665 1.25 1.25 0 0 0 .532 1.028c1.56 1.161 3.131 2.31 4.667 3.507a5.215 5.215 0 0 1 1.814 2.442 4.094 4.094 0 0 1-.375 3.518c-.4.7-.871 1.354-1.33 2.019-.665.967-1.354 1.91-2.043 2.866-.001.026-.025.038-.061.086z" class="cls-1" data-name="Path 232" transform="translate(409.97 340.418)"/>
        <path id="Path_233" d="M188.891 453.258l-.508-.218c.036-.109.073-.194.1-.29a.708.708 0 0 0-.23-.834c-.532-.411-1.076-.81-1.608-1.221-.641-.484-1.306-.931-1.91-1.463a2.842 2.842 0 0 1-1.028-2.3 3.715 3.715 0 0 1 .411-1.511 13.044 13.044 0 0 1 1.91-2.684l.472.314a.648.648 0 0 0 .133 1.016c.508.423 1.052.81 1.6 1.2a13.041 13.041 0 0 1 2 1.56 2.917 2.917 0 0 1 .943 2.261 4.21 4.21 0 0 1-.81 2.189c-.484.663-.98 1.316-1.475 1.981z" class="cls-1" data-name="Path 233" transform="translate(414.955 308.601)"/>
        <path id="Path_234" d="M161.321 516.633v-7.908c.024-.012.048-.012.073-.024 1.2 0 2.406-.012 3.6.012a3.618 3.618 0 0 1 1.584.363 1.685 1.685 0 0 1 1.022 1.524 1.978 1.978 0 0 1-.846 1.814l-.145.1c.133.048.242.1.363.145a1.637 1.637 0 0 1 1.016 1.548 2.178 2.178 0 0 1-1.923 2.334 3.917 3.917 0 0 1-.834.085c-1.221.012-2.442 0-3.663 0zm1.632-3.168v1.681a.411.411 0 0 0 .121.012c.677 0 1.354.012 2.043 0a1.957 1.957 0 0 0 .592-.1c.447-.145.592-.435.544-.991a.613.613 0 0 0-.689-.581c-.871-.048-1.729-.024-2.612-.024zm.036-1.572h2.019a.857.857 0 0 0 .242-.048.8.8 0 0 0 .65-.845.692.692 0 0 0-.689-.737c-.725-.049-1.451-.036-2.189-.049-.012 0-.024.012-.036.024z" class="cls-1" data-name="Path 234" transform="translate(431.679 259.313)"/>
        <path id="Path_235" d="M192.321 516.633v-7.908c.024-.012.048-.012.073-.024 1.2 0 2.406-.012 3.6.012a3.618 3.618 0 0 1 1.584.363 1.685 1.685 0 0 1 1.022 1.524 1.978 1.978 0 0 1-.846 1.814l-.145.1c.133.048.242.1.363.145a1.637 1.637 0 0 1 1.016 1.548 2.178 2.178 0 0 1-1.923 2.334 3.917 3.917 0 0 1-.834.085c-1.221.012-2.442 0-3.664 0zm1.632-3.168v1.681a.41.41 0 0 0 .121.012c.677 0 1.354.012 2.043 0a1.957 1.957 0 0 0 .592-.1c.447-.145.592-.435.544-.991a.613.613 0 0 0-.689-.581c-.871-.048-1.729-.024-2.612-.024zm.036-1.572h2.019a.857.857 0 0 0 .242-.048.8.8 0 0 0 .65-.845.692.692 0 0 0-.689-.737c-.725-.049-1.451-.036-2.189-.049-.012 0-.024.012-.036.024z" class="cls-1" data-name="Path 235" transform="translate(408.514 259.313)"/>
        <path id="Path_236" d="M223.321 516.633v-7.908c.024-.012.048-.012.073-.024 1.2 0 2.406-.012 3.6.012a3.618 3.618 0 0 1 1.584.363 1.685 1.685 0 0 1 1.022 1.524 1.978 1.978 0 0 1-.846 1.814l-.145.1c.133.048.242.1.363.145a1.637 1.637 0 0 1 1.016 1.548 2.178 2.178 0 0 1-1.923 2.334 3.917 3.917 0 0 1-.834.085c-1.221.012-2.442 0-3.663 0zm1.632-3.168v1.681a.411.411 0 0 0 .121.012c.677 0 1.354.012 2.043 0a1.957 1.957 0 0 0 .592-.1c.447-.145.592-.435.544-.991a.613.613 0 0 0-.689-.581c-.871-.048-1.729-.024-2.612-.024zm.036-1.572h2.019a.857.857 0 0 0 .242-.048.8.8 0 0 0 .65-.845.692.692 0 0 0-.689-.737c-.725-.049-1.451-.036-2.189-.049-.012 0-.024.012-.036.024z" class="cls-1" data-name="Path 236" transform="translate(385.349 259.313)"/>
        <path id="Path_237" d="M175.386 489.557c.181-.508.363-.992.544-1.475.012-.036.085-.06.133-.085a.253.253 0 0 1 .133 0c4.268 0 8.525 0 12.793-.012a.278.278 0 0 1 .327.23v.012c.109.387.242.774.363 1.161a1.559 1.559 0 0 1 .036.157H186.4a.218.218 0 0 0-.242.193c-.181.641-.375 1.27-.556 1.9a.176.176 0 0 1-.193.157h-5.55a.167.167 0 0 1-.194-.145v-.012c-.193-.641-.4-1.282-.592-1.935a.213.213 0 0 0-.23-.181h-3.2z" class="cls-1" data-name="Path 237" transform="translate(421.169 274.794)"/>
        <path id="Path_238" d="M306.969 419.929c-.157-.544-.351-1.076-.532-1.608a.511.511 0 0 0-.06-.193c-.435-1.342-.919-2.672-1.354-4.014-1-3.24-4.3-12.853-4.583-13.518a.075.075 0 0 1-.012-.1c-.109-.375-.411-.363-.726-.363-2.067 0-4.147.036-6.215-.024a.749.749 0 0 0-.846.653c-.363 1.511-4.1 12.43-5.139 15.525-.242.762-.447 1.548-.75 2.285-.145.411-.254.846-.375 1.27-.242.81-.133.979.713.992 1.463.012 2.938.012 4.4 0 .786 0 .919-.1 1.149-.858.242-.81.471-1.62.665-2.443.085-.339.23-.544.6-.544 1.765.012 3.543-.036 5.308 0a.8.8 0 0 1 .834.7c.218.81.483 1.62.677 2.442a.826.826 0 0 0 .895.713c1.572.012 3.144.012 4.7 0 .687-.032.845-.261.651-.915zm-8.585-7.678c-1.124-.012-2.249-.012-3.374-.012-.5 0-.435-.327-.363-.617.3-1.221.653-2.43.955-3.664.278-1.149.532-2.3.786-3.458.048-.218.036-.484.375-.6.23 1.04.484 2.056.762 3.071.435 1.584.8 3.18 1.233 4.752.1.423.012.532-.375.532z" class="cls-1" data-name="Path 238" transform="translate(338.314 340.455)"/>
        <path id="Path_239" d="M381.915 422.235c-.689 0-1.366.024-2.056-.012-.447-.012-.6.133-.592.593.024 1.27-.012 2.539.024 3.809.012.544-.181.7-.7.689a42.683 42.683 0 0 0-2.479-.012c-.411.012-.52-.145-.52-.532.012-1.209 0-2.418 0-3.627 0-.907 0-.907-.871-.907-1.245 0-2.491-.012-3.748.012-.423.012-.556-.133-.544-.556q.036-1.269 0-2.539c-.012-.459.157-.58.6-.58 1.33.024 2.66 0 3.99.012.435 0 .6-.133.592-.581-.024-1.306 0-2.624-.024-3.93-.012-.52.1-.774.689-.725a18.235 18.235 0 0 0 2.3 0c.6-.036.75.206.726.762-.036 1.245.012 2.5-.036 3.748-.024.6.194.762.762.737 1.294-.036 2.575.012 3.869-.024.5-.012.629.169.6.629a44.778 44.778 0 0 0-.012 2.539c.012.411-.133.52-.52.508-.671-.026-1.365-.013-2.05-.013z" class="cls-1" data-name="Path 239" transform="translate(275.422 330.569)"/>
        <text id="Rating" class="cls-2" transform="translate(623.519 774.471)">
            <tspan x="0" y="0">Rating</tspan>
        </text>
    </g>
</svg>
